<?xml version="1.0" standalone="no"?><!DOCTYPE svg PUBLIC "-//W3C//DTD SVG 1.1//EN" "http://www.w3.org/Graphics/SVG/1.1/DTD/svg11.dtd"><svg width="16" height="16" viewBox="0 0 16 16" version="1.1" xmlns="http://www.w3.org/2000/svg" xmlns:xlink="http://www.w3.org/1999/xlink"><defs><style type="text/css"><![CDATA[
@font-face { font-family: ifont; src: url("//at.alicdn.com/t/font_1442373896_4754455.eot?#iefix") format("embedded-opentype"), url("//at.alicdn.com/t/font_1442373896_4754455.woff") format("woff"), url("//at.alicdn.com/t/font_1442373896_4754455.ttf") format("truetype"), url("//at.alicdn.com/t/font_1442373896_4754455.svg#ifont") format("svg"); }

]]></style></defs><g class="transform-group"><g transform="scale(0.015625, 0.015625)"><path d="M670.652881 528.984836c12.216229-0.019443 19.786649-5.845125 21.466917-16.161075 2.090615-12.853749-6.750751-22.274306-21.211091-22.284539-99.354845-0.060375-198.709691-0.075725-298.064536-0.082888-51.861158-0.005117-103.724363 0.12382-155.586544-0.020466-8.56098-0.023536-15.554254 2.179642-19.868513 9.948583-7.662517 13.798261 2.366907 28.570709 19.612687 28.589129 75.462692 0.080841 150.925385 0.034792 226.3891 0.034792 0 0.01535 0 0.028653 0 0.044002 31.465642 0 62.932308 0.005117 94.399997-0.001023C582.077543 529.040095 626.365212 529.054421 670.652881 528.984836zM214.76383 410.069493c-11.479449 0.010233-19.776416 8.063653-19.895119 18.721387-0.11768 10.635221 8.068769 19.033495 19.277042 19.695574 2.322905 0.1361 4.660136 0.037862 6.991228 0.037862 75.463716 0.023536 150.928455 0.066515 226.391147 0.066515 73.715909 0 147.430794-0.063445 221.145679-0.025583 5.644557 0.00307 11.088546-0.372483 15.818267-3.795443 6.762007-4.894474 9.546424-13.69286 6.999414-21.791305-2.558265-8.136308-9.478885-12.917194-19.574824-12.923334-76.044954-0.058328-152.092977-0.032746-228.139977-0.027629C367.440092 410.032654 291.101449 409.997861 214.76383 410.069493zM521.569448 329.520969c-50.099025 0-100.197026-0.032746-150.295028 0.022513-13.405311 0.01535-21.272489 7.083326-21.350261 18.830881-0.078795 11.630898 8.092305 19.589151 20.892843 19.602454 99.905384 0.102331 199.811792 0.122797 299.716152 0.080841 13.091156-0.005117 22.063505-8.225335 22.107507-19.655665 0.046049-11.283997-9.032724-18.931165-22.521946-18.935258-49.516764-0.007163-99.031481-0.002047-148.548244-0.002047C521.569448 329.48413 521.569448 329.502549 521.569448 329.520969zM501.310032 593.916684c0.104377-12.713556-7.948019-19.412119-23.470551-19.418258-43.122123-0.019443-86.243223-0.007163-129.3633-0.007163 0-0.021489 0-0.040932 0-0.062422-43.99398 0-87.990007-0.049119-131.98501 0.028653-13.190417 0.023536-21.924335 8.199753-21.641903 19.823488 0.265036 10.959609 9.340739 18.760273 21.989827 18.760273 87.116103 0 174.232207-0.01535 261.34831-0.049119C492.892315 612.987019 501.208724 606.068446 501.310032 593.916684zM684.627151 666.843624c-13.345959-0.433882-26.702152 1.023306-39.913035 3.613294-40.197514 7.879458-77.629032 23.87578-115.375727 38.962384-3.829212 1.530866-5.885034 4.604878-5.777587 8.888438 0.040932 7.368828 7.342222 11.920494 14.239306 8.29185 12.125155-6.381337 24.953322-11.023054 37.616736-16.064884 41.380456-16.474206 83.669608-28.130687 128.908952-26.176173 13.295817 0.576121 26.907836-0.232291 40.017412-2.490727 27.190269-4.683672 54.109362-10.920724 81.21265-16.143679 5.760191-1.110287 5.859451-3.416819 4.669346-8.303106-2.680039-11.021008-2.37714-11.094686-12.917194-8.744151-3.3984 0.75827-6.804986 1.485841-10.199293 2.272763C766.806825 660.264788 726.366787 668.202575 684.627151 666.843624zM671.047878 287.513226c12.576433-0.023536 21.479197-8.103562 21.49864-19.151176 0.021489-11.467169-8.336876-19.244296-21.085224-19.315928-18.343787-0.103354-36.68962-0.025583-55.032384-0.027629-18.345834-0.001023-36.68962-0.042979-55.033407 0.01228-14.09502 0.042979-22.077831 6.906294-22.182208 18.912745-0.106424 11.998265 8.082072 19.522636 21.767769 19.556405C597.668637 287.590997 634.357234 287.584857 671.047878 287.513226zM934.609599 694.638667c-2.170432-15.609513-14.982226-27.160593-33.335223-27.322275-13.789051 3.006474-30.491455 6.692423-47.221488 10.247388-2.598174 0.551562-3.252067 1.612731-2.702552 4.183276 3.815909 17.876136 7.572466 35.765575 11.190877 53.682643 0.597611 2.955308 1.704828 3.816932 4.671393 3.149736 15.569604-3.508917 31.323403-6.308683 46.718021-10.454096C927.847591 724.374922 936.629605 709.153242 934.609599 694.638667zM271.202237 840.276628c29.91124 4.417613 59.846016 8.683776 89.714278 13.376659 5.456269 0.857531 6.034437-0.884137 5.061272-5.326309-5.278213-24.116257-10.499122-48.247864-16.047488-73.786517-28.529777 18.147312-55.95643 35.606962-83.401502 53.036937-2.75474 1.74883-4.151553 4.089132-3.397377 7.330966C264.117888 839.146898 267.669784 839.755766 271.202237 840.276628zM312.101739 674.094772c-0.007163-11.294231-8.052396-18.938328-20.383236-19.068288-12.525268-0.13303-25.051559-0.029676-37.57785-0.026606-12.817933 0.00307-25.634844-0.066515-38.451754 0.023536-12.245905 0.083911-20.661575 7.725962-20.826328 18.707061-0.168846 11.233855 8.546653 19.672038 20.924565 19.73753 25.343201 0.137123 50.687426 0.162706 76.029604-0.01842C303.871287 693.364651 312.107879 685.219133 312.101739 674.094772zM387.513266 849.930499c2.229784-0.586354 6.480598 0.952698 6.2831-3.520173-0.448208-1.836835-0.831948-3.236718-1.130753-4.657067-4.303003-20.431332-8.565073-40.871873-12.899798-61.297065-2.613524-12.325723-2.620687-12.144598-14.82873-9.224082-4.469801 1.069355-5.935176 2.27788-4.735861 7.447623 4.840238 20.904099 8.94165 41.97909 13.430894 62.966077C376.018467 852.800873 376.16173 852.918553 387.513266 849.930499zM787.218714 781.415033c-8.241708 1.806135-16.464997 3.795443-24.792663 5.081739-5.996574 0.927115-7.78736 3.442402-7.738241 9.671267 0.325411 40.228213 0.00307 80.45745 0.277316 120.68464 0.040932 6.077416-1.39886 7.713682-7.605212 7.710612-204.350155-0.163729-408.701332-0.147356-613.050464 0.023536-5.985318 0.007163-7.769964-1.301645-7.763824-7.573489 0.176009-205.808366 0.173962-411.616732 0.00307-617.426121-0.00614-6.595208 1.304715-8.803503 8.43409-8.754385 49.845245 0.347924 99.695606 0.168846 149.543921 0.216941 17.129122 0.01535 21.13639-3.904936 21.131273-20.998243-0.01228-52.764738 0.184195-105.529475-0.222057-158.290119-0.063445-8.260128 2.470261-9.931187 10.225899-9.918907 143.423527 0.224104 286.847054 0.224104 430.270581-0.008186 7.29515-0.01228 9.055237 1.826602 9.045003 9.075703-0.218988 149.255349-0.153496 298.508651-0.146333 447.761953 0.002047 26.819832 0.180102 53.639664-0.113587 80.455403-0.071631 6.511297 1.49812 8.118911 7.874341 6.051833 6.04774-1.960655 12.453636-3.463891 18.776645-3.797489 9.953699-0.523933 12.438287-4.91801 12.417821-14.69263-0.334621-150.712537-0.229221-301.423027-0.23536-452.134541-0.001023-30.02585 0.022513-60.051701-0.100284-90.077551-0.052189-12.821003-4.557806-17.182334-17.432021-17.448394-3.206018-0.064468-6.414083-0.019443-9.620102-0.019443-155.669432 0-311.339888 0-467.00932 0-2.331092 0-5.145184 0.842181-6.91755-0.155543-10.377348-5.847172-15.689331 1.567705-21.505803 7.744381-56.95927 60.479443-113.740484 121.123638-171.022095 181.295066-8.469905 8.895601-12.088316 17.809621-12.06785 30.145577 0.342808 215.432561 0.26913 430.866145 0.286526 646.300752 0.001023 19.636223 7.561209 27.097148 27.530007 27.097148 109.319801 0.007163 218.637556 0.004093 327.95531 0.004093 109.903086 0 219.803101 0.00614 329.706187-0.011256 13.0799-0.00307 19.974937-5.599532 20.028149-17.669428 0.237407-51.886741 0.027629-103.776551 0.215918-155.664316C793.617447 780.592294 791.254633 780.530896 787.218714 781.415033zM266.899234 136.642077c0 38.48143-0.083911 74.550926 0.091074 110.620423 0.026606 5.354961-2.87856 5.237281-6.64842 5.230118-32.591279-0.061398-65.182558-0.035816-100.410897-0.035816C195.883831 213.532281 230.551398 175.996386 266.899234 136.642077zM848.933287 745.04366c-4.241604-19.912515-8.425903-39.836287-12.780071-59.722196-2.939959-13.425777-3.048429-13.399171-16.378016-10.56666-141.962246 30.162974-283.914258 60.383252-425.926646 90.306772-7.023974 1.480724-7.253194 4.40431-5.982248 10.091846 4.632507 20.717857 9.232269 41.453111 13.193487 62.307068 1.370207 7.208169 3.460822 9.209756 11.1919 7.552 108.920712-23.351847 217.922265-46.320978 326.900282-69.410859 34.995025-7.4159 69.971631-14.920828 104.9554-22.387893 2.664689-0.568958 6.373151 0.032746 5.14416-6.030343C849.275072 747.348146 849.175811 746.181577 848.933287 745.04366zM817.259914 700.514491c-40.663118 8.626471-81.326237 17.249873-121.988332 25.88146-93.267197 19.797905-186.531324 39.599903-279.799544 59.390645-1.422396 0.302899-2.871397 0.481977-4.860704 0.809435-3.136433 0.89744-3.855818-1.269923-4.350075-4.27742-0.591471-3.581572 1.12973-4.359284 4.190439-4.995781 23.907503-4.972245 47.768957-10.154267 71.65497-15.21861 100.949156-21.411659 201.902406-42.808992 302.855656-64.200184 10.237155-2.167363 20.571525-3.941775 30.695093-6.537903 4.354168-1.11745 5.502317 0.172939 6.451946 3.991917C823.288211 700.090842 820.052516 699.921997 817.259914 700.514491z" fill="#fff"></path></g></g></svg>